<svg width="66" height="66" viewBox="0 0 66 66" fill="none" xmlns="http://www.w3.org/2000/svg">
<path d="M9.66797 12.7617C9.66797 11.3377 10.8221 10.1836 12.2461 10.1836C13.6701 10.1836 14.8242 11.3377 14.8242 12.7617C14.8242 14.1857 13.6701 15.3398 12.2461 15.3398C10.8221 15.3398 9.66797 14.1857 9.66797 12.7617ZM21.2695 15.3398C22.6935 15.3398 23.8477 14.1857 23.8477 12.7617C23.8477 11.3377 22.6935 10.1836 21.2695 10.1836C19.8455 10.1836 18.6914 11.3377 18.6914 12.7617C18.6914 14.1857 19.8455 15.3398 21.2695 15.3398ZM9.66797 33C9.66797 34.424 10.8221 35.5781 12.2461 35.5781C13.6701 35.5781 14.8242 34.424 14.8242 33C14.8242 31.576 13.6701 30.4219 12.2461 30.4219C10.8221 30.4219 9.66797 31.576 9.66797 33ZM18.6914 33C18.6914 34.424 19.8455 35.5781 21.2695 35.5781C22.6935 35.5781 23.8477 34.424 23.8477 33C23.8477 31.576 22.6935 30.4219 21.2695 30.4219C19.8455 30.4219 18.6914 31.576 18.6914 33ZM9.66797 53.2383C9.66797 54.6623 10.8221 55.8164 12.2461 55.8164C13.6701 55.8164 14.8242 54.6623 14.8242 53.2383C14.8242 51.8143 13.6701 50.6602 12.2461 50.6602C10.8221 50.6602 9.66797 51.8143 9.66797 53.2383ZM66 55.6225C66 61.3448 61.3548 66 55.6452 66H30.2582C23.8094 66 18.5625 60.742 18.5625 54.2791C18.5625 51.3178 19.6602 48.4884 21.6527 46.3121C23.1764 44.6484 25.1176 43.4807 27.2531 42.9177C27.9611 39.9373 29.5613 37.2272 31.8726 35.1416C34.6929 32.5967 38.3416 31.1953 42.1473 31.1953C46.2285 31.1953 50.0614 32.7608 52.9407 35.6028C55.6049 38.2323 57.1679 41.6775 57.4016 45.3906C62.2783 46.2335 66 50.501 66 55.6225ZM60.8438 55.6225C60.8438 52.7403 58.5063 50.3953 55.6331 50.3953H52.276V46.3685C52.276 40.8452 47.7321 36.3516 42.1473 36.3516C36.9196 36.3516 32.579 40.2434 32.0503 45.4052L31.8318 47.5407L29.6917 47.7119C26.3427 47.9808 23.7188 50.8656 23.7188 54.2791C23.7188 57.899 26.6524 60.8438 30.2582 60.8438H55.6452C58.5114 60.8438 60.8438 58.5013 60.8438 55.6225ZM15.8484 45.5039H7.73438C6.31288 45.5039 5.15625 46.6605 5.15625 48.082V58.2656C5.15625 59.6871 6.31288 60.8438 7.73438 60.8438H14.7336C15.5488 62.7713 16.713 64.5161 18.1456 66H7.73438C3.46939 66 0 62.5306 0 58.2656V48.082C0 46.1026 0.748261 44.2954 1.97589 42.9258C0.748261 41.5562 0 39.7489 0 37.7695V27.8438C0 25.8643 0.748261 24.0571 1.97589 22.6875C0.748261 21.3179 0 19.5107 0 17.5312V7.73438C0 3.46939 3.46939 0 7.73438 0H47.8242C52.0892 0 55.5586 3.46939 55.5586 7.73438V17.5312C55.5586 19.5107 54.8103 21.3179 53.5827 22.6875C54.8103 24.0571 55.5586 25.8643 55.5586 27.8438V31.0065C53.9966 29.6555 52.2584 28.5618 50.3978 27.7486C50.347 26.3714 49.2135 25.2656 47.8242 25.2656H7.73438C6.31288 25.2656 5.15625 26.4223 5.15625 27.8438V37.7695C5.15625 39.191 6.31288 40.3477 7.73438 40.3477H20.694C19.6663 41.0592 18.7115 41.8895 17.8505 42.8301C17.0901 43.6599 16.422 44.5562 15.8484 45.5039ZM5.15625 17.5312C5.15625 18.9527 6.31288 20.1094 7.73438 20.1094H47.8242C49.2457 20.1094 50.4023 18.9527 50.4023 17.5312V7.73438C50.4023 6.31288 49.2457 5.15625 47.8242 5.15625H7.73438C6.31288 5.15625 5.15625 6.31288 5.15625 7.73438V17.5312Z" fill="#8C2B25"/>
</svg>
