<svg width="66" height="66" viewBox="0 0 66 66" fill="none" xmlns="http://www.w3.org/2000/svg">
<g clip-path="url(#clip0)">
<path d="M56.3293 9.67022C43.4363 -3.22303 22.5659 -3.22509 9.67088 9.67022C-3.2225 22.5635 -3.22443 43.4336 9.67088 56.3288C22.5639 69.2221 43.4343 69.224 56.3293 56.3288C69.2227 43.4356 69.2245 22.5654 56.3293 9.67022ZM54.9504 51.6258C53.4089 50.2473 51.76 49.0275 50.0219 47.9762C51.1707 44.0079 51.8513 39.6412 52.0122 35.102H61.7121C61.2735 41.2204 58.9226 46.9599 54.9504 51.6258ZM4.28802 35.102H13.9879C14.1488 39.6412 14.8294 44.0079 15.9781 47.9762C14.2401 49.0275 12.5912 50.2473 11.0497 51.6258C7.07747 46.9599 4.72672 41.2204 4.28802 35.102ZM11.0498 14.3733C12.5913 15.7517 14.2402 16.9716 15.9783 18.0228C14.8295 21.9911 14.1489 26.3578 13.988 30.897H4.28802C4.72672 24.7787 7.07747 19.0392 11.0498 14.3733ZM30.8977 18.4574C27.4687 18.2122 24.1625 17.3676 21.0975 15.9744C22.8801 11.384 26.1663 5.87844 30.8977 4.51405V18.4574ZM30.8977 22.6702V30.8972H18.1947C18.3402 27.0573 18.8843 23.3702 19.7891 19.9965C23.2723 21.5191 27.0183 22.4285 30.8977 22.6702ZM30.8977 35.102V43.3289C27.0183 43.5707 23.2723 44.48 19.7891 46.0027C18.8843 42.629 18.3402 38.9418 18.1947 35.102H30.8977ZM30.8977 47.5417V61.485C26.1666 60.1206 22.8803 54.6156 21.0975 50.0248C24.1625 48.6315 27.4687 47.787 30.8977 47.5417ZM35.1025 47.5417C38.5315 47.787 41.8377 48.6315 44.9027 50.0248C43.12 54.6152 39.8339 60.1206 35.1025 61.485V47.5417ZM35.1025 43.3289V35.102H47.8055C47.66 38.9418 47.1159 42.629 46.2111 46.0027C42.7279 44.48 38.9819 43.5707 35.1025 43.3289ZM35.1025 30.8972V22.6702C38.9819 22.4285 42.7279 21.5191 46.2111 19.9965C47.1159 23.3702 47.66 27.0573 47.8055 30.8972H35.1025ZM35.1025 18.4574V4.51418C39.8339 5.87857 43.1201 11.3842 44.9027 15.9745C41.8377 17.3676 38.5315 18.2122 35.1025 18.4574ZM44.5462 6.61326C47.2375 7.79178 49.7484 9.38982 51.9992 11.3726C50.9278 12.3172 49.7973 13.1737 48.6169 13.9397C47.5685 11.3441 46.2294 8.82168 44.5462 6.61326ZM17.3832 13.9397C16.2028 13.1737 15.0724 12.3172 14.0009 11.3726C16.2517 9.38982 18.7626 7.79178 21.4539 6.61326C19.7707 8.82194 18.4315 11.3444 17.3832 13.9397ZM17.3834 52.0594C18.4315 54.6549 19.7709 57.1775 21.454 59.3859C18.7627 58.2074 16.2518 56.6093 14.001 54.6266C15.0724 53.6819 16.2029 52.8254 17.3834 52.0594ZM48.6169 52.0594C49.7973 52.8254 50.9278 53.6819 51.9992 54.6264C49.7484 56.6092 47.2375 58.2072 44.5462 59.3858C46.2293 57.1776 47.5685 54.655 48.6169 52.0594ZM52.0123 30.8972C51.8514 26.358 51.1709 21.9911 50.0221 18.023C51.7601 16.9717 53.4089 15.7518 54.9505 14.3734C58.9227 19.0392 61.2735 24.7787 61.7122 30.8972H52.0123Z" fill="#8C2B25"/>
</g>
<defs>
<clipPath id="clip0">
<rect width="66" height="66" fill="white"/>
</clipPath>
</defs>
</svg>
