<svg width="66" height="66" viewBox="0 0 66 66" fill="none" xmlns="http://www.w3.org/2000/svg">
<g clip-path="url(#clip0)">
<path d="M60.6577 16.9938C60.6238 15.2119 60.5914 13.5285 60.5914 11.9C60.5914 10.6242 59.5574 9.58986 58.2813 9.58986C48.4014 9.58986 40.8792 6.75051 34.6091 0.654124C33.7121 -0.218195 32.2848 -0.217887 31.3881 0.654124C25.1186 6.75051 17.5976 9.58986 7.71843 9.58986C6.4426 9.58986 5.40826 10.6242 5.40826 11.9C5.40826 13.5289 5.37623 15.2128 5.34204 16.995C5.02539 33.5777 4.59169 56.2885 32.242 65.8727C32.4871 65.9577 32.7428 66.0002 32.9985 66.0002C33.2541 66.0002 33.5101 65.9577 33.755 65.8727C61.4074 56.2882 60.9743 33.5768 60.6577 16.9938ZM32.9988 61.2385C9.28503 52.624 9.64357 33.753 9.96176 17.0831C9.98086 16.0827 9.99934 15.113 10.0123 14.1625C19.2653 13.7719 26.6646 10.968 32.9988 5.45004C39.3336 10.968 46.7341 13.7722 55.9877 14.1625C56.0007 15.1127 56.0191 16.0817 56.0382 17.0816C56.3561 33.7521 56.7143 52.6237 32.9988 61.2385Z" fill="#8C2B25"/>
<path d="M40.9541 24.9751L29.804 36.1246L25.0459 31.3665C24.1437 30.4647 22.6809 30.4647 21.7791 31.3665C20.8769 32.2691 20.8769 33.7315 21.7791 34.6337L28.1705 41.0252C28.6215 41.4762 29.2129 41.7016 29.804 41.7016C30.3951 41.7016 30.9865 41.4762 31.4374 41.0252L44.2206 28.2423C45.1232 27.3401 45.1231 25.8773 44.221 24.9754C43.3191 24.0732 41.8563 24.0729 40.9541 24.9751Z" fill="#8C2B25"/>
</g>
<defs>
<clipPath id="clip0">
<rect width="66" height="66" fill="white"/>
</clipPath>
</defs>
</svg>
