<svg width="66" height="66" viewBox="0 0 66 66" fill="none" xmlns="http://www.w3.org/2000/svg">
<g clip-path="url(#clip0)">
<path d="M65.6329 24.9758C64.6595 21.9804 62.008 20.0447 58.8779 20.0447H45.6904C44.8159 20.0447 44.0875 19.5413 43.8359 18.7669L39.7592 6.13884C38.7898 3.15556 36.1368 1.22803 33.0001 1.22803C29.8634 1.22803 27.2103 3.15556 26.2395 6.14348L22.1658 18.7622C21.9126 19.5414 21.1842 20.0447 20.3097 20.0447H7.12194C3.99184 20.0447 1.34023 21.9803 0.366992 24.9758C-0.610117 27.9829 0.401797 31.1198 2.9446 32.9673L13.6138 40.719C14.2998 41.2173 14.5848 42.0943 14.3226 42.9008L10.2474 55.443C9.27802 58.4263 10.2915 61.5452 12.8291 63.3888C14.098 64.3107 15.5521 64.7716 17.0063 64.7716C18.4607 64.7716 19.915 64.3107 21.1837 63.3888L31.8529 55.6372C32.5388 55.1388 33.4608 55.1386 34.147 55.6373L44.8161 63.3888C47.3537 65.2324 50.6331 65.2327 53.1706 63.3888C55.7083 61.5453 56.7217 58.4263 55.7523 55.443L52.9625 46.8568C52.5227 45.5029 51.0683 44.762 49.7146 45.2018C48.3606 45.6418 47.6196 47.0958 48.0596 48.4499L50.8493 57.0361C51.2558 58.2873 50.4094 59.0225 50.1403 59.2182C49.8711 59.4136 48.9104 59.9916 47.8461 59.2181L37.1771 51.4667C34.6786 49.6513 31.3211 49.6511 28.8225 51.4665L18.1535 59.2181C17.089 59.9915 16.1282 59.4136 15.8592 59.2182C15.59 59.0225 14.7438 58.2873 15.1502 57.0361L19.2255 44.4939C20.18 41.5566 19.1424 38.3635 16.6439 36.5482L5.97467 28.7966C4.90217 28.0175 5.16398 26.8945 5.26981 26.5689C5.37423 26.2477 5.81612 25.2001 7.12181 25.2001H20.3094C23.4107 25.2001 26.1268 23.2532 27.0701 20.3508L31.1437 7.73212C31.5503 6.4807 32.6673 6.3835 32.9999 6.3835C33.3324 6.3835 34.4494 6.4807 34.8544 7.72748L38.9312 20.3554C39.8729 23.2532 42.5889 25.2001 45.6903 25.2001H58.8778C60.1836 25.2001 60.6254 26.2477 60.7298 26.5689C60.8356 26.8945 61.0974 28.0175 60.0249 28.7966L52.7501 34.0821C51.5985 34.9191 51.3431 36.5308 52.18 37.6827C53.0167 38.8344 54.6285 39.0895 55.7804 38.253L63.0553 32.9675C65.5982 31.1198 66.61 27.983 65.6329 24.9758Z" fill="#8C2B25"/>
</g>
<defs>
<clipPath id="clip0">
<rect width="66" height="66" fill="white"/>
</clipPath>
</defs>
</svg>
