<svg width="66" height="66" viewBox="0 0 66 66" fill="none" xmlns="http://www.w3.org/2000/svg">
<path d="M38.214 40.1829L48.5133 25.9445C48.829 25.5078 48.7817 24.905 48.3989 24.5222C48.0161 24.1416 47.4133 24.0932 46.9766 24.4078L32.736 34.7104C31.8076 35.3858 31.2235 36.4297 31.1344 37.5748C31.0453 38.7199 31.46 39.8408 32.2707 40.6515C33.011 41.3918 33.9944 41.7999 35.0394 41.7999C36.2912 41.7999 37.477 41.196 38.214 40.1829Z" fill="#8C2B25"/>
<path d="M59.9874 21.5204C59.9764 21.4973 59.9764 21.4731 59.9643 21.45C59.9511 21.428 59.9302 21.4159 59.9159 21.395C58.8038 19.4876 57.4882 17.7133 55.9944 16.1051L58.3561 13.7434L59.9115 15.2988L64.5777 10.6326L59.9115 5.9653L55.2442 10.6326L56.8007 12.188L54.439 14.5497C52.8308 13.0559 51.0576 11.7392 49.1491 10.6271C49.1282 10.6128 49.1161 10.5919 49.0941 10.5787C49.071 10.5655 49.0468 10.5666 49.0237 10.5545C45.6214 8.5943 41.7989 7.2886 37.7245 6.8101V5.5H39.3745C40.8914 5.5 42.1245 4.2669 42.1245 2.75C42.1245 1.2331 40.8892 0 39.3723 0H29.4723C27.9554 0 26.7223 1.2331 26.7223 2.75C26.7223 4.2669 27.9554 5.5 29.4723 5.5H31.1223V6.7716C29.9343 6.8981 28.7485 7.0917 27.5759 7.3601C26.9841 7.4954 26.6134 8.0861 26.7498 8.6779C26.8851 9.2697 27.4758 9.6393 28.0676 9.504C29.1082 9.2653 30.1598 9.0882 31.2136 8.9705L32.3037 8.888C32.6722 8.8605 33.0022 8.8407 33.3212 8.8253V11C33.3212 11.6083 33.8129 12.1 34.4212 12.1C35.0295 12.1 35.5212 11.6083 35.5212 11V8.833C39.6583 9.0233 43.5567 10.1343 47.0228 11.9625L45.9382 13.8413C45.6346 14.3682 45.815 15.0403 46.3408 15.3439C46.5135 15.444 46.7027 15.4913 46.8897 15.4913C47.2703 15.4913 47.6399 15.2933 47.8434 14.9413L48.9247 13.0669C52.3666 15.2504 55.2904 18.1742 57.4739 21.6161L55.6006 22.6974C55.077 23.001 54.8966 23.6731 55.2013 24.2C55.4059 24.5531 55.7744 24.75 56.155 24.75C56.342 24.75 56.5312 24.7027 56.7039 24.6026L58.5816 23.518C60.4351 27.0336 61.5494 30.9958 61.7155 35.1989H59.543C58.9347 35.1989 58.443 35.6906 58.443 36.2989C58.443 36.9072 58.9347 37.3989 59.543 37.3989H61.7155C61.5494 41.602 60.4351 45.5642 58.5816 49.0798L56.7039 47.9952C56.1781 47.6905 55.5049 47.8698 55.2013 48.3978C54.8977 48.9247 55.0781 49.5968 55.6039 49.9004L57.4772 50.9817C55.2937 54.4236 52.3699 57.3474 48.928 59.5309L47.8467 57.6576C47.542 57.1296 46.8677 56.9492 46.3441 57.255C45.8172 57.5586 45.6368 58.2318 45.9415 58.7576L47.0261 60.6353C43.56 62.4635 39.6616 63.5745 35.5245 63.7648V61.6C35.5245 60.9917 35.0328 60.5 34.4245 60.5C33.8162 60.5 33.3245 60.9917 33.3245 61.6V63.7736C31.5678 63.7131 29.8056 63.4931 28.0709 63.0949C27.4791 62.9574 26.8884 63.3292 26.7531 63.921C26.6167 64.5128 26.9874 65.1035 27.5792 65.2388C29.7748 65.7448 32.0177 66 34.243 66C34.2969 66 34.3486 65.9967 34.4025 65.9956C34.4102 65.9956 34.4157 66 34.4223 66C34.4311 66 34.4388 65.9945 34.4476 65.9945C39.7353 65.9582 44.6963 64.5304 48.9885 62.0642C49.0226 62.0488 49.0589 62.0411 49.0919 62.0213C49.1139 62.0081 49.126 61.9872 49.1469 61.9729C53.5898 59.3835 57.3023 55.6754 59.8972 51.2358C59.9181 51.2061 59.9445 51.183 59.9632 51.15C59.9764 51.1269 59.9753 51.1027 59.9863 51.0796C62.4987 46.7236 63.943 41.679 63.943 36.3C63.943 30.921 62.4987 25.8764 59.9874 21.5204Z" fill="#8C2B25"/>
<path d="M24.5223 14.3H19.0223C17.8079 14.3 16.8223 15.2856 16.8223 16.5C16.8223 17.7144 17.8079 18.7 19.0223 18.7H24.5223C25.7367 18.7 26.7223 17.7144 26.7223 16.5C26.7223 15.2856 25.7367 14.3 24.5223 14.3Z" fill="#8C2B25"/>
<path d="M24.5223 22H13.5223C12.3079 22 11.3223 22.9856 11.3223 24.2C11.3223 25.4144 12.3079 26.4 13.5223 26.4H24.5223C25.7367 26.4 26.7223 25.4144 26.7223 24.2C26.7223 22.9856 25.7367 22 24.5223 22Z" fill="#8C2B25"/>
<path d="M24.5223 29.7002H8.0223C6.8079 29.7002 5.8223 30.6858 5.8223 31.9002C5.8223 33.1146 6.8079 34.1002 8.0223 34.1002H24.5223C25.7367 34.1002 26.7223 33.1146 26.7223 31.9002C26.7223 30.6858 25.7367 29.7002 24.5223 29.7002Z" fill="#8C2B25"/>
<path d="M24.5223 37.3999H3.6223C2.4079 37.3999 1.4223 38.3855 1.4223 39.5999C1.4223 40.8143 2.4079 41.7999 3.6223 41.7999H24.5223C25.7367 41.7999 26.7223 40.8143 26.7223 39.5999C26.7223 38.3855 25.7367 37.3999 24.5223 37.3999Z" fill="#8C2B25"/>
<path d="M24.5223 45.1001H10.2223C9.00791 45.1001 8.02231 46.0857 8.02231 47.3001C8.02231 48.5145 9.00791 49.5001 10.2223 49.5001H24.5223C25.7367 49.5001 26.7223 48.5145 26.7223 47.3001C26.7223 46.0857 25.7367 45.1001 24.5223 45.1001Z" fill="#8C2B25"/>
<path d="M24.5223 52.7998H16.8223C15.6079 52.7998 14.6223 53.7854 14.6223 54.9998C14.6223 56.2142 15.6079 57.1998 16.8223 57.1998H24.5223C25.7367 57.1998 26.7223 56.2142 26.7223 54.9998C26.7223 53.7854 25.7367 52.7998 24.5223 52.7998Z" fill="#8C2B25"/>
</svg>
