<svg width="88" height="65" viewBox="0 0 88 65" fill="none" xmlns="http://www.w3.org/2000/svg">
<path fill-rule="evenodd" clip-rule="evenodd" d="M71.8004 32.6493L82.3739 28.5242C78.3311 20.274 71.1784 12.0238 65.5807 8.21598C29.1952 -17.1693 -16.8309 22.1779 6.18217 64.0636C-3.76941 41.5342 10.536 12.6584 32.3051 8.53329C43.1896 6.31208 55.9401 10.7545 63.4037 19.322C64.3367 20.274 65.2697 21.5433 65.8916 22.8125C67.7576 25.6684 70.5564 29.7935 71.8004 32.6493Z" fill="#8C2B25"/>
<path fill-rule="evenodd" clip-rule="evenodd" d="M37.2809 48.5151L87.9717 30.7454C85.7948 32.3319 47.2324 57.0826 45.6775 58.0346C41.9457 60.5731 40.0797 62.1597 36.6589 61.8424C32.927 61.525 30.7501 58.6692 31.0611 55.1787C31.0611 51.3709 33.86 49.7843 37.2809 48.5151Z" fill="#8C2B25"/>
</svg>
